<svg xmlns="http://www.w3.org/2000/svg" viewBox="0 0 200 200" width="200" height="200">
  <defs>
    <linearGradient id="bg" x1="0%" y1="0%" x2="100%" y2="100%">
      <stop offset="0%" style="stop-color:#ec4899"/>
      <stop offset="100%" style="stop-color:#8b5cf6"/>
    </linearGradient>
  </defs>
  <rect width="200" height="200" rx="40" fill="url(#bg)"/>
  <g transform="translate(50, 35)" fill="white">
    <!-- Speech bubble / social icon -->
    <path d="M50 0 C77.6 0 100 18.3 100 40.9 C100 63.5 77.6 81.8 50 81.8 C43.5 81.8 37.3 80.8 31.6 78.9 L10 90 L16.4 72.5 C6.1 64.8 0 53.5 0 40.9 C0 18.3 22.4 0 50 0Z" opacity="0.9"/>
    <!-- Heart icon in bubble -->
    <path d="M50 30 C45 22, 33 22, 33 32 C33 42, 50 52, 50 52 C50 52, 67 42, 67 32 C67 22, 55 22, 50 30Z" fill="#ec4899" transform="scale(0.7) translate(22, 18)"/>
    <!-- Signal dots -->
    <circle cx="35" cy="42" r="4" fill="#ec4899"/>
    <circle cx="50" cy="42" r="4" fill="#ec4899"/>
    <circle cx="65" cy="42" r="4" fill="#ec4899"/>
  </g>
  <text x="100" y="170" text-anchor="middle" font-family="system-ui, sans-serif" font-size="20" font-weight="700" fill="white">Social</text>
</svg>
